<svg width="64" height="64" viewBox="0 0 64 64" fill="none" xmlns="http://www.w3.org/2000/svg">
<rect x="2" y="2" width="60" height="60" rx="11" stroke="#092EEC" stroke-width="3"/>
<path d="M13.7457 17.1818L20.1665 27.8832H20.3995L26.8349 17.1818H33.2557L24.0977 32.0909L33.4158 47H26.8931L20.3995 36.3423H20.1665L13.6729 47H7.16477L16.5558 32.0909L7.29581 17.1818H13.7457ZM42.2965 47.3931C40.5591 47.3931 38.9963 46.9466 37.6083 46.0536C36.23 45.1509 35.138 43.8406 34.3324 42.1225C33.5267 40.4045 33.1239 38.3127 33.1239 35.8473C33.1239 33.343 33.5316 31.2367 34.3469 29.5284C35.172 27.8104 36.2785 26.5194 37.6665 25.6555C39.0643 24.782 40.6124 24.3452 42.3111 24.3452C43.602 24.3452 44.6697 24.5636 45.5142 25.0004C46.3586 25.4371 47.0284 25.9661 47.5234 26.5874C48.0282 27.2086 48.4164 27.7958 48.6882 28.3491H48.9066V17.1818H54.4393V47H48.9939V43.462H48.6882C48.4164 44.025 48.0184 44.6122 47.4943 45.2237C46.9799 45.8255 46.3004 46.34 45.4559 46.767C44.6115 47.1844 43.5583 47.3931 42.2965 47.3931ZM43.9126 42.8942C44.9997 42.8942 45.9219 42.5981 46.679 42.006C47.4361 41.4139 48.0136 40.5889 48.4116 39.5309C48.8095 38.4729 49.0085 37.2353 49.0085 35.8182C49.0085 34.401 48.8095 33.1732 48.4116 32.1346C48.0233 31.0863 47.4506 30.2758 46.6935 29.7031C45.9364 29.1304 45.0095 28.8441 43.9126 28.8441C42.7867 28.8441 41.8403 29.145 41.0735 29.7468C40.3164 30.3389 39.7437 31.1591 39.3555 32.2074C38.9672 33.2557 38.7731 34.4593 38.7731 35.8182C38.7731 37.1868 38.9672 38.4049 39.3555 39.4727C39.7534 40.5404 40.3309 41.38 41.0881 41.9915C41.8549 42.5933 42.7964 42.8942 43.9126 42.8942Z" fill="#092EEC"/>
</svg>
