<svg width="64" height="64" viewBox="0 0 64 64" fill="none" xmlns="http://www.w3.org/2000/svg">
<rect x="2" y="2" width="60" height="60" rx="11" stroke="#092EEC" stroke-width="3"/>
<path d="M10.8391 47V17.1818H22.1957C24.4767 17.1818 26.3986 17.6089 27.9613 18.4631C29.5337 19.3172 30.7228 20.4966 31.5284 22.0011C32.3438 23.4959 32.7514 25.2042 32.7514 27.1261C32.7514 29.0479 32.3389 30.7563 31.5139 32.2511C30.6985 33.7459 29.4949 34.9203 27.9031 35.7745C26.3209 36.619 24.3845 37.0412 22.0938 37.0412H14.6538V32.4258H21.2784C22.5888 32.4258 23.6613 32.2025 24.4961 31.756C25.3308 31.2998 25.9521 30.6738 26.3597 29.8778C26.7674 29.0722 26.9712 28.1549 26.9712 27.1261C26.9712 26.0875 26.7674 25.1751 26.3597 24.3888C25.9521 23.5929 25.326 22.9766 24.4815 22.5398C23.6468 22.0933 22.5694 21.87 21.2493 21.87H16.5028V47H10.8391ZM52.9486 30.6786L47.8964 31.1591C47.7799 30.6738 47.5518 30.2224 47.2121 29.805C46.8821 29.3877 46.4404 29.0528 45.8871 28.8004C45.3436 28.5384 44.6787 28.4073 43.8925 28.4073C42.8345 28.4073 41.9463 28.6354 41.2281 29.0916C40.5098 29.5478 40.1506 30.1399 40.1506 30.8679C40.1506 31.4891 40.3836 31.9987 40.8495 32.3967C41.3251 32.7946 42.1162 33.1198 43.2227 33.3722L47.1102 34.1875C49.2359 34.634 50.818 35.3523 51.8566 36.3423C52.9049 37.3324 53.4339 38.633 53.4436 40.2443C53.4339 41.6615 53.0165 42.9136 52.1915 44.0007C51.3664 45.0781 50.2308 45.9226 48.7845 46.5341C47.3383 47.1359 45.6688 47.4368 43.776 47.4368C40.9805 47.4368 38.7335 46.8496 37.0349 45.6751C35.346 44.5006 34.3413 42.8748 34.021 40.7976L39.4372 40.3462C39.6605 41.3266 40.1409 42.0691 40.8786 42.5739C41.626 43.0689 42.5918 43.3164 43.776 43.3164C44.9796 43.3164 45.9454 43.0737 46.6734 42.5884C47.4111 42.1031 47.7848 41.4916 47.7945 40.7539C47.7848 40.1424 47.5372 39.6377 47.0519 39.2397C46.5763 38.832 45.8338 38.5214 44.8243 38.3079L40.9805 37.5071C38.8257 37.0606 37.229 36.3084 36.1904 35.2504C35.1518 34.1826 34.6374 32.8286 34.6471 31.1882C34.6374 29.7905 35.0159 28.582 35.7827 27.5629C36.5496 26.534 37.6221 25.7429 39.0004 25.1896C40.3884 24.6267 41.9949 24.3452 43.8197 24.3452C46.4889 24.3452 48.5952 24.9179 50.1386 26.0632C51.6819 27.1989 52.6186 28.7373 52.9486 30.6786Z" fill="#092EEC"/>
</svg>
