<svg width="64" height="64" viewBox="0 0 64 64" fill="none" xmlns="http://www.w3.org/2000/svg">
<rect x="2" y="2" width="60" height="60" rx="11" stroke="#092EEC" stroke-width="3"/>
<path d="M22.5028 17.1818V47H16.8391V17.1818H22.5028ZM34.2008 47.3931C32.4633 47.3931 30.9006 46.9466 29.5126 46.0536C28.1343 45.1509 27.0423 43.8406 26.2367 42.1225C25.431 40.4045 25.0282 38.3127 25.0282 35.8473C25.0282 33.343 25.4359 31.2367 26.2512 29.5284C27.0763 27.8104 28.1828 26.5194 29.5708 25.6555C30.9686 24.782 32.5167 24.3452 34.2154 24.3452C35.5063 24.3452 36.574 24.5636 37.4185 25.0004C38.2629 25.4371 38.9327 25.9661 39.4277 26.5874C39.9325 27.2086 40.3207 27.7958 40.5925 28.3491H40.8109V17.1818H46.3436V47H40.8982V43.462H40.5925C40.3207 44.025 39.9227 44.6122 39.3986 45.2237C38.8842 45.8255 38.2047 46.34 37.3602 46.767C36.5158 47.1844 35.4626 47.3931 34.2008 47.3931ZM35.8169 42.8942C36.904 42.8942 37.8262 42.5981 38.5833 42.006C39.3404 41.4139 39.9179 40.5889 40.3159 39.5309C40.7138 38.4729 40.9128 37.2353 40.9128 35.8182C40.9128 34.401 40.7138 33.1732 40.3159 32.1346C39.9276 31.0863 39.3549 30.2758 38.5978 29.7031C37.8407 29.1304 36.9137 28.8441 35.8169 28.8441C34.691 28.8441 33.7446 29.145 32.9778 29.7468C32.2207 30.3389 31.648 31.1591 31.2597 32.2074C30.8715 33.2557 30.6774 34.4593 30.6774 35.8182C30.6774 37.1868 30.8715 38.4049 31.2597 39.4727C31.6577 40.5404 32.2352 41.38 32.9923 41.9915C33.7592 42.5933 34.7007 42.8942 35.8169 42.8942Z" fill="#092EEC"/>
</svg>
