<svg width="64" height="64" viewBox="0 0 64 64" fill="none" xmlns="http://www.w3.org/2000/svg">
<ellipse cx="39.5" cy="32.2656" rx="7.5" ry="7" fill="#6EA9EC"/>
<path fill-rule="evenodd" clip-rule="evenodd" d="M24.4869 10H31.9741V24.5578H24.4869H23.9881V24.5419C20.0858 24.2924 17 21.136 17 17.2789C17 13.4218 20.0858 10.2654 23.9881 10.0159V10H24.4869Z" fill="#2667FF"/>
<path fill-rule="evenodd" clip-rule="evenodd" d="M39.9601 24.5419C43.8623 24.2922 46.9479 21.1359 46.9479 17.2789C46.9479 13.4219 43.8623 10.2656 39.9601 10.0159V10H39.461H31.9741V17.2789V24.5578H39.461H39.9601V24.5419Z" fill="#391FFF"/>
<path fill-rule="evenodd" clip-rule="evenodd" d="M24.4869 24.5576H31.9741V39.1154H24.4869H23.9881V39.0995C20.0858 38.85 17 35.6936 17 31.8365C17 27.9794 20.0858 24.823 23.9881 24.5735V24.5576H24.4869Z" fill="#3F8EFC"/>
<path fill-rule="evenodd" clip-rule="evenodd" d="M24.4869 53.6735C28.6218 53.6735 31.9738 50.4147 31.9738 46.3946C31.9738 46.1618 31.9625 45.9316 31.9405 45.7043C31.9626 45.4521 31.9739 45.1968 31.9739 44.9389V39.1157H24.4869H23.3224V39.2032C19.7406 39.7471 17 42.7597 17 46.3946C17 50.0296 19.7406 53.0422 23.3224 53.586V53.5904C23.332 53.5904 23.3415 53.5903 23.351 53.5903C23.7214 53.6451 24.1007 53.6735 24.4869 53.6735Z" fill="#83C3F3"/>
<rect x="2" y="2" width="60" height="60" rx="11" stroke="#092EEC" stroke-width="3"/>
</svg>
