<svg width="64" height="64" viewBox="0 0 64 64" fill="none" xmlns="http://www.w3.org/2000/svg">
<rect x="2" y="2" width="60" height="60" rx="11" stroke="#092EEC" stroke-width="3"/>
<path d="M20.0323 47H13.9901L24.4439 17.1818H31.5199L41.9592 47H35.9169L28.0984 23.4861H27.8654L20.0323 47ZM20.0614 35.294H35.8441V39.8075H20.0614V35.294ZM43.6546 47V24.6364H49.1873V47H43.6546ZM46.4501 21.5497C45.5862 21.5497 44.8437 21.2634 44.2225 20.6907C43.611 20.1083 43.3052 19.4143 43.3052 18.6087C43.3052 17.7933 43.611 17.0993 44.2225 16.5266C44.8437 15.954 45.5814 15.6676 46.4355 15.6676C47.3091 15.6676 48.0517 15.9588 48.6632 16.5412C49.2747 17.1139 49.5804 17.803 49.5804 18.6087C49.5804 19.4143 49.2747 20.1083 48.6632 20.6907C48.0517 21.2634 47.314 21.5497 46.4501 21.5497Z" fill="#092EEC"/>
</svg>
